<svg xmlns="http://www.w3.org/2000/svg" viewBox="0 0 43.76 42.59"><defs><style>.cls-1,.cls-4{fill:#fff;}.cls-2,.cls-3{fill:none;}.cls-2,.cls-3,.cls-4{stroke:#fff;stroke-miterlimit:10;}.cls-3,.cls-4{stroke-width:0.5px;}</style></defs><title>Asset 4</title><g id="Layer_2" data-name="Layer 2"><g id="Layer_1-2" data-name="Layer 1"><path class="cls-1" d="M34.31,38.91a2.55,2.55,0,0,0,.11-.55L34,38.17A1.09,1.09,0,0,0,34,38v-.07l.35-.22a2,2,0,0,0-.17-.54l-.42,0a1.43,1.43,0,0,0-.14-.2l.2-.38a2.93,2.93,0,0,0-.42-.37l-.35.23-.22-.11,0-.42a2.07,2.07,0,0,0-.55-.11l-.18.37h-.25l-.23-.36a2.21,2.21,0,0,0-.53.18l0,.42a1.1,1.1,0,0,0-.21.14l-.38-.2a2.14,2.14,0,0,0-.37.42l.24.35a1.55,1.55,0,0,0-.12.22l-.42,0a2,2,0,0,0-.11.55l.38.18v.19a.13.13,0,0,1,0,.06l-.36.23a2.55,2.55,0,0,0,.18.53l.42,0c0,.07.09.14.14.21l-.2.37a3,3,0,0,0,.42.38l.35-.24.22.11,0,.42a2.44,2.44,0,0,0,.55.12l.18-.38h.25l.23.36a3,3,0,0,0,.53-.17l0-.43.21-.13.37.19A2.46,2.46,0,0,0,34,39.5l-.24-.35a2.4,2.4,0,0,0,.11-.23Zm-2.22.62a1.38,1.38,0,1,1,1.37-1.37A1.38,1.38,0,0,1,32.09,39.53Z"/><path class="cls-1" d="M42.35,8a6.24,6.24,0,0,0,.29-1.44l-1-.48c0-.16,0-.32,0-.48a1,1,0,0,1,0-.17l.93-.59a6.13,6.13,0,0,0-.46-1.39L41,3.57A3.84,3.84,0,0,0,40.64,3l.51-1a5.92,5.92,0,0,0-1.09-1l-.91.61a4.6,4.6,0,0,0-.59-.29l0-1.1A5.78,5.78,0,0,0,37.09,0l-.48,1a4.1,4.1,0,0,0-.49,0L36,1,35.37.1A5.8,5.8,0,0,0,34,.55l.08,1.1a5.21,5.21,0,0,0-.55.36l-1-.51a6,6,0,0,0-1,1.09l.62.91a6.36,6.36,0,0,0-.3.58l-1.1,0a6.24,6.24,0,0,0-.29,1.44l1,.48c0,.16,0,.32,0,.48a1,1,0,0,1,0,.17l-.93.59A6,6,0,0,0,31,8.67l1.1-.08a4.62,4.62,0,0,0,.35.55l-.51,1a5.92,5.92,0,0,0,1.09,1l.91-.61a4.6,4.6,0,0,0,.59.29l0,1.1a5.78,5.78,0,0,0,1.43.3l.48-1a4.1,4.1,0,0,0,.49,0l.16,0,.59.94a6.3,6.3,0,0,0,1.39-.46l-.08-1.1a5.21,5.21,0,0,0,.55-.36l1,.51a6,6,0,0,0,1-1.09L41,8.66a6.36,6.36,0,0,0,.3-.58ZM36.57,9.67a3.59,3.59,0,1,1,3.58-3.59A3.59,3.59,0,0,1,36.57,9.67Z"/><path class="cls-2" d="M37.92,19.21a5.2,5.2,0,0,0-3.7-5,3.43,3.43,0,0,0,.05-.56A4,4,0,0,0,31,9.73,4.91,4.91,0,0,0,21.85,8,4.92,4.92,0,0,0,12.7,9.73a4,4,0,0,0-3.28,3.95,3.43,3.43,0,0,0,.05.56,5.18,5.18,0,0,0-2.22,8.59A5.18,5.18,0,0,0,9,31.24a3.54,3.54,0,0,0,3.4,4.52h.31a5.19,5.19,0,0,0,9.17.14A5.18,5.18,0,0,0,31,35.75h.32a3.51,3.51,0,0,0,3.39-4.52,5.18,5.18,0,0,0,1.72-8.41A5.13,5.13,0,0,0,37.92,19.21Z"/><line class="cls-2" x1="21.87" y1="7.61" x2="21.87" y2="35.98"/><path class="cls-2" d="M13.13,27.9a4,4,0,0,1-.36,7.88l-.3,0"/><path class="cls-2" d="M10.43,19.91a2.88,2.88,0,0,1,0,.83,2.84,2.84,0,0,1-3.19,2.42l-.2,0"/><path class="cls-2" d="M20,11.34a2.64,2.64,0,0,0-.47-.69,2.83,2.83,0,0,0-4-.18l-.15.14"/><path class="cls-2" d="M18.45,26.54a2.84,2.84,0,0,1-2,4.06l-.21,0"/><path class="cls-2" d="M31.91,23.13a2.48,2.48,0,0,1,.54-.63,2.81,2.81,0,0,1,4,.28,1.83,1.83,0,0,1,.13.16"/><path class="cls-2" d="M29,32.36A3,3,0,0,1,34.07,30a2.92,2.92,0,0,1,.77,1.14"/><path class="cls-2" d="M21.87,25.15a3,3,0,1,0,5.25-1.94L27,23.05"/><path class="cls-2" d="M25.38,16.92A2.67,2.67,0,1,1,30,18.63l-.14.14"/><path class="cls-2" d="M12.33,9.82a3,3,0,0,1,3.25,4.42,1,1,0,0,1-.12.19"/><path class="cls-2" d="M27.07,14.44a3.46,3.46,0,0,1,4.19-4.67"/><path class="cls-2" d="M21.84,20c.1,2.95-6.41,3.17-6.46-2"/><path class="cls-1" d="M9.09,34.94a4.11,4.11,0,0,0,.18-.86l-.6-.29c0-.1,0-.2,0-.3s0-.06,0-.1L9.21,33a3.32,3.32,0,0,0-.28-.84l-.66,0a3.15,3.15,0,0,0-.22-.33l.31-.58a3.1,3.1,0,0,0-.66-.59l-.55.37a2.31,2.31,0,0,0-.35-.18l0-.66a3.21,3.21,0,0,0-.87-.18l-.29.59-.29,0h-.1l-.36-.57a3.77,3.77,0,0,0-.84.28l0,.66a2.7,2.7,0,0,0-.33.22L3.16,31a4.1,4.1,0,0,0-.59.66l.37.55-.18.35-.66,0a3.56,3.56,0,0,0-.18.86l.6.29c0,.1,0,.2,0,.3s0,.06,0,.1L2,34.48a3.75,3.75,0,0,0,.27.84l.67,0a3,3,0,0,0,.21.33l-.31.58a3.67,3.67,0,0,0,.66.59L4,36.41a2.42,2.42,0,0,0,.36.18l0,.66a3.21,3.21,0,0,0,.87.18l.29-.59.29,0H6l.36.57a4.14,4.14,0,0,0,.84-.28l0-.66.33-.22.59.31a4.1,4.1,0,0,0,.59-.66l-.38-.55A2.31,2.31,0,0,0,8.42,35Zm-3.5,1a2.17,2.17,0,1,1,2.17-2.17A2.17,2.17,0,0,1,5.59,35.93Z"/><polyline class="cls-3" points="14.16 7.61 11.58 4.55 7.76 4.55"/><polyline class="cls-3" points="37.92 18.35 41.25 18.35 43.2 20.79"/><line class="cls-3" x1="34.22" y1="14.24" x2="41.62" y2="14.15"/><polyline class="cls-3" points="37.92 27.4 40.76 27.4 41.67 24.86"/><line class="cls-3" x1="34.84" y1="33.54" x2="39.13" y2="37.51"/><polyline class="cls-3" points="8.33 14.74 5.34 14.74 3.74 12.98"/><polyline class="cls-3" points="6.02 20.79 3.79 20.79 2.03 22.02"/><line class="cls-3" x1="5.77" y1="27.4" x2="0.87" y2="27.4"/><polyline class="cls-3" points="12.47 36.94 10.96 39.77 12.47 41.97"/><line class="cls-3" x1="27.45" y1="38.58" x2="27.45" y2="41.97"/><circle class="cls-4" cx="7.76" cy="4.56" r="0.31"/><circle class="cls-4" cx="3.74" cy="12.98" r="0.31"/><circle class="cls-4" cx="1.92" cy="22.12" r="0.31"/><circle class="cls-4" cx="0.56" cy="27.4" r="0.31"/><circle class="cls-4" cx="12.47" cy="42.02" r="0.31"/><circle class="cls-4" cx="27.45" cy="41.88" r="0.31"/><circle class="cls-4" cx="39.13" cy="37.51" r="0.31"/><circle class="cls-4" cx="41.62" cy="24.86" r="0.31"/><circle class="cls-4" cx="41.62" cy="14.2" r="0.31"/><circle class="cls-4" cx="43.2" cy="20.79" r="0.31"/><polyline class="cls-3" points="20.59 37.44 20.59 40.43 18.83 42.03"/><circle class="cls-4" cx="18.83" cy="42.03" r="0.31"/><path class="cls-1" d="M40.42,5.91a6.42,6.42,0,0,0-1.07-1,4.41,4.41,0,0,0-5.57,0,6,6,0,0,0-1.07,1l-.13.17.13.17a6,6,0,0,0,1.07,1,4.41,4.41,0,0,0,5.57,0,6.42,6.42,0,0,0,1.07-1l.13-.17ZM36.56,7.54A1.46,1.46,0,1,1,38,6.08,1.46,1.46,0,0,1,36.56,7.54ZM33.3,6.08a6.12,6.12,0,0,1,.82-.72A4.75,4.75,0,0,1,35,4.83a2,2,0,0,0-.45,1.25A2,2,0,0,0,35,7.33a4.75,4.75,0,0,1-.91-.53A6.12,6.12,0,0,1,33.3,6.08ZM39,6.8a4.75,4.75,0,0,1-.91.53,2,2,0,0,0,.45-1.25,2,2,0,0,0-.45-1.25,4.75,4.75,0,0,1,.91.53,6.12,6.12,0,0,1,.82.72A6.12,6.12,0,0,1,39,6.8Z"/><path class="cls-1" d="M36.48,5a.85.85,0,0,0-.73,1,.85.85,0,0,1,.8-.57.65.65,0,0,1,.59.56.81.81,0,0,1-.58.82c.82.27,1.28-.77.91-1.38A1,1,0,0,0,36.48,5Z"/><polyline class="cls-3" points="21.88 8.23 21.96 4.9 24.45 3.02"/><circle class="cls-3" cx="24.45" cy="3.02" r="0.31"/></g></g></svg>