<svg xmlns="http://www.w3.org/2000/svg" viewBox="0 0 44.26 42.84"><defs><style>.cls-1{fill:#ffc938;}.cls-2,.cls-3{fill:none;stroke:#ffc938;stroke-miterlimit:10;}.cls-3{stroke-width:0.75px;}</style></defs><title>Asset 6</title><g id="Layer_2" data-name="Layer 2"><g id="Layer_1-2" data-name="Layer 1"><path class="cls-1" d="M34.56,38.91a2.55,2.55,0,0,0,.11-.55l-.38-.19a1.09,1.09,0,0,0,0-.18v-.07l.35-.22a2,2,0,0,0-.17-.54l-.42,0a1.43,1.43,0,0,0-.14-.2l.2-.38a2.93,2.93,0,0,0-.42-.37l-.35.23-.22-.11,0-.42a2.07,2.07,0,0,0-.55-.11l-.18.37h-.25l-.23-.36a2.21,2.21,0,0,0-.53.18l0,.42a1.1,1.1,0,0,0-.21.14l-.38-.2a2.14,2.14,0,0,0-.37.42l.24.35a1.55,1.55,0,0,0-.12.22l-.42,0A2,2,0,0,0,30,38l.38.18v.19a.13.13,0,0,1,0,.06l-.36.23a2.55,2.55,0,0,0,.18.53l.42,0c0,.07.09.14.14.21l-.2.37a3,3,0,0,0,.42.38l.35-.24.22.11,0,.42a2.44,2.44,0,0,0,.55.12l.18-.38h.25l.23.36a3,3,0,0,0,.53-.17l0-.43.21-.13.37.19a2.46,2.46,0,0,0,.38-.41L34,39.15a2.4,2.4,0,0,0,.11-.23Zm-2.22.62a1.38,1.38,0,1,1,1.37-1.37A1.38,1.38,0,0,1,32.34,39.53Z"/><path class="cls-1" d="M42.6,8a6.24,6.24,0,0,0,.29-1.44l-1-.48c0-.16,0-.32,0-.48a1,1,0,0,1,0-.17l.93-.59a6.13,6.13,0,0,0-.46-1.39l-1.1.08A3.84,3.84,0,0,0,40.89,3l.51-1a5.92,5.92,0,0,0-1.09-1l-.91.61a4.6,4.6,0,0,0-.59-.29l0-1.1A5.78,5.78,0,0,0,37.34,0l-.48,1a4.1,4.1,0,0,0-.49,0l-.16,0L35.62.1a5.8,5.8,0,0,0-1.39.45l.08,1.1a5.21,5.21,0,0,0-.55.36l-1-.51a6,6,0,0,0-1,1.09l.62.91a6.36,6.36,0,0,0-.3.58l-1.1,0a6.24,6.24,0,0,0-.29,1.44l1,.48c0,.16,0,.32,0,.48a1,1,0,0,1,0,.17l-.93.59a6,6,0,0,0,.46,1.39l1.1-.08a4.62,4.62,0,0,0,.35.55l-.51,1a5.92,5.92,0,0,0,1.09,1l.91-.61a4.6,4.6,0,0,0,.59.29l0,1.1a5.78,5.78,0,0,0,1.43.3l.48-1a4.1,4.1,0,0,0,.49,0l.16,0,.59.94a6.3,6.3,0,0,0,1.39-.46l-.08-1.1a5.21,5.21,0,0,0,.55-.36l1,.51a6,6,0,0,0,1-1.09l-.62-.91a6.36,6.36,0,0,0,.3-.58ZM36.82,9.67A3.59,3.59,0,1,1,40.4,6.08,3.59,3.59,0,0,1,36.82,9.67Z"/><path class="cls-2" d="M38.17,19.21a5.2,5.2,0,0,0-3.7-5,3.43,3.43,0,0,0,.05-.56,4,4,0,0,0-3.28-3.95A4.91,4.91,0,0,0,22.1,8,4.92,4.92,0,0,0,13,9.73a4,4,0,0,0-3.28,3.95,3.43,3.43,0,0,0,.05.56A5.18,5.18,0,0,0,7.5,22.83a5.18,5.18,0,0,0,1.72,8.41,3.54,3.54,0,0,0,3.4,4.52h.31a5.19,5.19,0,0,0,9.17.14,5.18,5.18,0,0,0,9.16-.14h.32A3.51,3.51,0,0,0,35,31.24a5.18,5.18,0,0,0,1.72-8.41A5.13,5.13,0,0,0,38.17,19.21Z"/><line class="cls-2" x1="22.12" y1="7.61" x2="22.12" y2="35.98"/><path class="cls-2" d="M13.38,27.9A4,4,0,0,1,13,35.78l-.3,0"/><path class="cls-2" d="M10.68,19.91a2.88,2.88,0,0,1,0,.83A2.84,2.84,0,0,1,7.5,23.16l-.2,0"/><path class="cls-2" d="M20.2,11.34a2.64,2.64,0,0,0-.47-.69,2.83,2.83,0,0,0-4-.18l-.15.14"/><path class="cls-2" d="M18.7,26.54a2.84,2.84,0,0,1-2,4.06l-.21,0"/><path class="cls-2" d="M32.16,23.13a2.48,2.48,0,0,1,.54-.63,2.81,2.81,0,0,1,4,.28,1.83,1.83,0,0,1,.13.16"/><path class="cls-2" d="M29.23,32.36A3,3,0,0,1,34.32,30a2.92,2.92,0,0,1,.77,1.14"/><path class="cls-2" d="M22.12,25.15a3,3,0,1,0,5.25-1.94l-.15-.16"/><path class="cls-2" d="M25.63,16.92a2.67,2.67,0,1,1,4.63,1.71l-.14.14"/><path class="cls-2" d="M12.58,9.82a3,3,0,0,1,3.25,4.42,1,1,0,0,1-.12.19"/><path class="cls-2" d="M27.32,14.44a3.46,3.46,0,0,1,4.19-4.67"/><path class="cls-2" d="M22.09,20c.1,2.95-6.41,3.17-6.46-2"/><path class="cls-1" d="M9.34,33.94a4.11,4.11,0,0,0,.18-.86l-.6-.29c0-.1,0-.2,0-.3s0-.06,0-.1L9.46,32a3.32,3.32,0,0,0-.28-.84l-.66,0a3.15,3.15,0,0,0-.22-.33l.31-.58A3.1,3.1,0,0,0,8,29.74l-.55.37a2.31,2.31,0,0,0-.35-.18l0-.66a3.21,3.21,0,0,0-.87-.18l-.29.59-.29,0h-.1l-.36-.57a3.77,3.77,0,0,0-.84.28l0,.66A2.7,2.7,0,0,0,4,30.3L3.41,30a4.1,4.1,0,0,0-.59.66l.37.55L3,31.55l-.66,0a3.56,3.56,0,0,0-.18.86l.6.29c0,.1,0,.2,0,.3s0,.06,0,.1l-.56.35a3.75,3.75,0,0,0,.27.84l.67,0a3,3,0,0,0,.21.33l-.31.58a3.67,3.67,0,0,0,.66.59l.55-.37a2.42,2.42,0,0,0,.36.18l0,.66a3.21,3.21,0,0,0,.87.18l.29-.59.29,0h.1l.36.57a4.14,4.14,0,0,0,.84-.28l0-.66.33-.22.59.31a4.1,4.1,0,0,0,.59-.66l-.38-.55A2.31,2.31,0,0,0,8.67,34Zm-3.5,1A2.17,2.17,0,1,1,8,32.76,2.17,2.17,0,0,1,5.84,34.93Z"/><polyline class="cls-3" points="14.41 7.61 11.83 4.55 8.01 4.55"/><polyline class="cls-3" points="38.17 18.35 41.5 18.35 43.45 20.79"/><line class="cls-3" x1="34.47" y1="14.24" x2="41.87" y2="14.15"/><polyline class="cls-3" points="38.17 27.4 41.01 27.4 41.92 24.86"/><line class="cls-3" x1="35.09" y1="33.54" x2="39.38" y2="37.51"/><polyline class="cls-3" points="8.58 14.74 5.59 14.74 3.99 12.98"/><polyline class="cls-3" points="6.27 20.79 4.04 20.79 2.28 22.02"/><line class="cls-3" x1="6.02" y1="27.4" x2="1.12" y2="27.4"/><polyline class="cls-3" points="12.72 35.94 11.21 38.77 12.72 40.97"/><line class="cls-3" x1="27.7" y1="38.58" x2="27.7" y2="41.97"/><circle class="cls-2" cx="8.01" cy="4.56" r="0.31"/><circle class="cls-2" cx="3.99" cy="12.98" r="0.31"/><circle class="cls-2" cx="2.17" cy="22.12" r="0.31"/><circle class="cls-2" cx="0.81" cy="27.4" r="0.31"/><circle class="cls-2" cx="12.72" cy="41.02" r="0.31"/><circle class="cls-2" cx="27.7" cy="41.88" r="0.31"/><circle class="cls-2" cx="39.38" cy="37.51" r="0.31"/><circle class="cls-2" cx="41.87" cy="24.86" r="0.31"/><circle class="cls-2" cx="41.87" cy="14.2" r="0.31"/><circle class="cls-2" cx="43.45" cy="20.79" r="0.31"/><polyline class="cls-3" points="20.84 37.44 20.84 40.43 19.08 42.03"/><circle class="cls-2" cx="19.08" cy="42.03" r="0.31"/><path class="cls-1" d="M40.67,5.91a6.42,6.42,0,0,0-1.07-1,4.41,4.41,0,0,0-5.57,0,6,6,0,0,0-1.07,1l-.13.17.13.17a6,6,0,0,0,1.07,1,4.41,4.41,0,0,0,5.57,0,6.42,6.42,0,0,0,1.07-1l.13-.17ZM36.81,7.54a1.46,1.46,0,1,1,1.47-1.46A1.46,1.46,0,0,1,36.81,7.54ZM33.55,6.08a6.12,6.12,0,0,1,.82-.72,4.75,4.75,0,0,1,.91-.53,2,2,0,0,0-.45,1.25,2,2,0,0,0,.45,1.25,4.75,4.75,0,0,1-.91-.53A6.12,6.12,0,0,1,33.55,6.08Zm5.71.72a4.75,4.75,0,0,1-.91.53,2,2,0,0,0,.45-1.25,2,2,0,0,0-.45-1.25,4.75,4.75,0,0,1,.91.53,6.12,6.12,0,0,1,.82.72A6.12,6.12,0,0,1,39.26,6.8Z"/><path class="cls-1" d="M36.73,5a.85.85,0,0,0-.73,1,.85.85,0,0,1,.8-.57.65.65,0,0,1,.59.56.81.81,0,0,1-.58.82c.82.27,1.28-.77.91-1.38A1,1,0,0,0,36.73,5Z"/><polyline class="cls-3" points="22.13 8.23 22.21 4.9 24.7 3.02"/><circle class="cls-3" cx="24.7" cy="3.02" r="0.31"/></g></g></svg>