<svg id="Layer_1" data-name="Layer 1" xmlns="http://www.w3.org/2000/svg" viewBox="0 0 50 50"><title>operations</title><path d="M41,41.87l2.28-.42A1.63,1.63,0,0,0,44.53,40V18.76a1.73,1.73,0,0,0-1.21-1.54s-10.91-3-15.9-4.17H22.57c-5,1.15-15.9,4.17-15.9,4.17a1.73,1.73,0,0,0-1.21,1.54V40A1.63,1.63,0,0,0,6.7,41.45L9,41.87,3.91,50H8.33l1.2-1.93H40.46L41.66,50h4.43Zm-3.93.8H36.61L37,42.59Zm-4-6.36a2,2,0,1,1-2,2A2,2,0,0,1,33.13,36.31Zm-16.25,0a2,2,0,1,1-2,2A2,2,0,0,1,16.87,36.31Zm-3.48,6.36H12.9l0-.08ZM10.64,46.3l1.16-1.87H38.2l1.16,1.87H10.64Z"/><path d="M25,11.16h3.48l15.66,4.17V3.5L37.42,0H12.58L5.86,3.5V15.33l15.66-4.17H25Zm3.14-7H40.2A1.08,1.08,0,0,1,41.28,5.2L41.6,8.55a1.08,1.08,0,0,1-1.08,1.07H28.75a1.08,1.08,0,0,1-1.08-1.07L27.06,5.2A1.08,1.08,0,0,1,28.14,4.13ZM9.48,9.63A1.08,1.08,0,0,1,8.4,8.55L8.72,5.2A1.08,1.08,0,0,1,9.8,4.13H21.86A1.08,1.08,0,0,1,22.94,5.2L22.32,8.55a1.08,1.08,0,0,1-1.08,1.07H9.48Z"/></svg>